G04 EAGLE Gerber RS-274X export*
G75*
%MOMM*%
%FSLAX34Y34*%
%LPD*%
%INTop Copper*%
%IPPOS*%
%AMOC8*
5,1,8,0,0,1.08239X$1,22.5*%
G01*
%ADD10C,0.000000*%
%ADD11C,1.879600*%
%ADD12P,1.539592X8X292.500000*%
%ADD13C,1.422400*%
%ADD14P,1.539592X8X112.500000*%
%ADD15P,1.539592X8X22.500000*%
%ADD16P,1.539592X8X202.500000*%
%ADD17R,1.350000X0.400000*%
%ADD18C,1.459600*%
%ADD19C,2.250000*%
%ADD20C,1.609600*%
%ADD21C,1.509600*%
%ADD22C,1.422400*%
%ADD23C,0.406400*%
%ADD24C,1.058000*%


D10*
X0Y0D02*
X1000000Y0D01*
X1000000Y1000000D01*
X0Y1000000D01*
X0Y0D01*
X9525Y965200D02*
X9530Y965590D01*
X9544Y965979D01*
X9568Y966368D01*
X9601Y966756D01*
X9644Y967143D01*
X9697Y967529D01*
X9759Y967914D01*
X9830Y968297D01*
X9911Y968678D01*
X10001Y969057D01*
X10100Y969434D01*
X10209Y969808D01*
X10326Y970180D01*
X10453Y970548D01*
X10589Y970913D01*
X10733Y971275D01*
X10887Y971633D01*
X11049Y971987D01*
X11220Y972338D01*
X11399Y972683D01*
X11587Y973025D01*
X11784Y973361D01*
X11988Y973693D01*
X12200Y974020D01*
X12421Y974341D01*
X12649Y974657D01*
X12885Y974967D01*
X13128Y975271D01*
X13379Y975569D01*
X13637Y975861D01*
X13903Y976146D01*
X14175Y976425D01*
X14454Y976697D01*
X14739Y976963D01*
X15031Y977221D01*
X15329Y977472D01*
X15633Y977715D01*
X15943Y977951D01*
X16259Y978179D01*
X16580Y978400D01*
X16907Y978612D01*
X17239Y978816D01*
X17575Y979013D01*
X17917Y979201D01*
X18262Y979380D01*
X18613Y979551D01*
X18967Y979713D01*
X19325Y979867D01*
X19687Y980011D01*
X20052Y980147D01*
X20420Y980274D01*
X20792Y980391D01*
X21166Y980500D01*
X21543Y980599D01*
X21922Y980689D01*
X22303Y980770D01*
X22686Y980841D01*
X23071Y980903D01*
X23457Y980956D01*
X23844Y980999D01*
X24232Y981032D01*
X24621Y981056D01*
X25010Y981070D01*
X25400Y981075D01*
X25790Y981070D01*
X26179Y981056D01*
X26568Y981032D01*
X26956Y980999D01*
X27343Y980956D01*
X27729Y980903D01*
X28114Y980841D01*
X28497Y980770D01*
X28878Y980689D01*
X29257Y980599D01*
X29634Y980500D01*
X30008Y980391D01*
X30380Y980274D01*
X30748Y980147D01*
X31113Y980011D01*
X31475Y979867D01*
X31833Y979713D01*
X32187Y979551D01*
X32538Y979380D01*
X32883Y979201D01*
X33225Y979013D01*
X33561Y978816D01*
X33893Y978612D01*
X34220Y978400D01*
X34541Y978179D01*
X34857Y977951D01*
X35167Y977715D01*
X35471Y977472D01*
X35769Y977221D01*
X36061Y976963D01*
X36346Y976697D01*
X36625Y976425D01*
X36897Y976146D01*
X37163Y975861D01*
X37421Y975569D01*
X37672Y975271D01*
X37915Y974967D01*
X38151Y974657D01*
X38379Y974341D01*
X38600Y974020D01*
X38812Y973693D01*
X39016Y973361D01*
X39213Y973025D01*
X39401Y972683D01*
X39580Y972338D01*
X39751Y971987D01*
X39913Y971633D01*
X40067Y971275D01*
X40211Y970913D01*
X40347Y970548D01*
X40474Y970180D01*
X40591Y969808D01*
X40700Y969434D01*
X40799Y969057D01*
X40889Y968678D01*
X40970Y968297D01*
X41041Y967914D01*
X41103Y967529D01*
X41156Y967143D01*
X41199Y966756D01*
X41232Y966368D01*
X41256Y965979D01*
X41270Y965590D01*
X41275Y965200D01*
X41270Y964810D01*
X41256Y964421D01*
X41232Y964032D01*
X41199Y963644D01*
X41156Y963257D01*
X41103Y962871D01*
X41041Y962486D01*
X40970Y962103D01*
X40889Y961722D01*
X40799Y961343D01*
X40700Y960966D01*
X40591Y960592D01*
X40474Y960220D01*
X40347Y959852D01*
X40211Y959487D01*
X40067Y959125D01*
X39913Y958767D01*
X39751Y958413D01*
X39580Y958062D01*
X39401Y957717D01*
X39213Y957375D01*
X39016Y957039D01*
X38812Y956707D01*
X38600Y956380D01*
X38379Y956059D01*
X38151Y955743D01*
X37915Y955433D01*
X37672Y955129D01*
X37421Y954831D01*
X37163Y954539D01*
X36897Y954254D01*
X36625Y953975D01*
X36346Y953703D01*
X36061Y953437D01*
X35769Y953179D01*
X35471Y952928D01*
X35167Y952685D01*
X34857Y952449D01*
X34541Y952221D01*
X34220Y952000D01*
X33893Y951788D01*
X33561Y951584D01*
X33225Y951387D01*
X32883Y951199D01*
X32538Y951020D01*
X32187Y950849D01*
X31833Y950687D01*
X31475Y950533D01*
X31113Y950389D01*
X30748Y950253D01*
X30380Y950126D01*
X30008Y950009D01*
X29634Y949900D01*
X29257Y949801D01*
X28878Y949711D01*
X28497Y949630D01*
X28114Y949559D01*
X27729Y949497D01*
X27343Y949444D01*
X26956Y949401D01*
X26568Y949368D01*
X26179Y949344D01*
X25790Y949330D01*
X25400Y949325D01*
X25010Y949330D01*
X24621Y949344D01*
X24232Y949368D01*
X23844Y949401D01*
X23457Y949444D01*
X23071Y949497D01*
X22686Y949559D01*
X22303Y949630D01*
X21922Y949711D01*
X21543Y949801D01*
X21166Y949900D01*
X20792Y950009D01*
X20420Y950126D01*
X20052Y950253D01*
X19687Y950389D01*
X19325Y950533D01*
X18967Y950687D01*
X18613Y950849D01*
X18262Y951020D01*
X17917Y951199D01*
X17575Y951387D01*
X17239Y951584D01*
X16907Y951788D01*
X16580Y952000D01*
X16259Y952221D01*
X15943Y952449D01*
X15633Y952685D01*
X15329Y952928D01*
X15031Y953179D01*
X14739Y953437D01*
X14454Y953703D01*
X14175Y953975D01*
X13903Y954254D01*
X13637Y954539D01*
X13379Y954831D01*
X13128Y955129D01*
X12885Y955433D01*
X12649Y955743D01*
X12421Y956059D01*
X12200Y956380D01*
X11988Y956707D01*
X11784Y957039D01*
X11587Y957375D01*
X11399Y957717D01*
X11220Y958062D01*
X11049Y958413D01*
X10887Y958767D01*
X10733Y959125D01*
X10589Y959487D01*
X10453Y959852D01*
X10326Y960220D01*
X10209Y960592D01*
X10100Y960966D01*
X10001Y961343D01*
X9911Y961722D01*
X9830Y962103D01*
X9759Y962486D01*
X9697Y962871D01*
X9644Y963257D01*
X9601Y963644D01*
X9568Y964032D01*
X9544Y964421D01*
X9530Y964810D01*
X9525Y965200D01*
X9525Y774700D02*
X9530Y775090D01*
X9544Y775479D01*
X9568Y775868D01*
X9601Y776256D01*
X9644Y776643D01*
X9697Y777029D01*
X9759Y777414D01*
X9830Y777797D01*
X9911Y778178D01*
X10001Y778557D01*
X10100Y778934D01*
X10209Y779308D01*
X10326Y779680D01*
X10453Y780048D01*
X10589Y780413D01*
X10733Y780775D01*
X10887Y781133D01*
X11049Y781487D01*
X11220Y781838D01*
X11399Y782183D01*
X11587Y782525D01*
X11784Y782861D01*
X11988Y783193D01*
X12200Y783520D01*
X12421Y783841D01*
X12649Y784157D01*
X12885Y784467D01*
X13128Y784771D01*
X13379Y785069D01*
X13637Y785361D01*
X13903Y785646D01*
X14175Y785925D01*
X14454Y786197D01*
X14739Y786463D01*
X15031Y786721D01*
X15329Y786972D01*
X15633Y787215D01*
X15943Y787451D01*
X16259Y787679D01*
X16580Y787900D01*
X16907Y788112D01*
X17239Y788316D01*
X17575Y788513D01*
X17917Y788701D01*
X18262Y788880D01*
X18613Y789051D01*
X18967Y789213D01*
X19325Y789367D01*
X19687Y789511D01*
X20052Y789647D01*
X20420Y789774D01*
X20792Y789891D01*
X21166Y790000D01*
X21543Y790099D01*
X21922Y790189D01*
X22303Y790270D01*
X22686Y790341D01*
X23071Y790403D01*
X23457Y790456D01*
X23844Y790499D01*
X24232Y790532D01*
X24621Y790556D01*
X25010Y790570D01*
X25400Y790575D01*
X25790Y790570D01*
X26179Y790556D01*
X26568Y790532D01*
X26956Y790499D01*
X27343Y790456D01*
X27729Y790403D01*
X28114Y790341D01*
X28497Y790270D01*
X28878Y790189D01*
X29257Y790099D01*
X29634Y790000D01*
X30008Y789891D01*
X30380Y789774D01*
X30748Y789647D01*
X31113Y789511D01*
X31475Y789367D01*
X31833Y789213D01*
X32187Y789051D01*
X32538Y788880D01*
X32883Y788701D01*
X33225Y788513D01*
X33561Y788316D01*
X33893Y788112D01*
X34220Y787900D01*
X34541Y787679D01*
X34857Y787451D01*
X35167Y787215D01*
X35471Y786972D01*
X35769Y786721D01*
X36061Y786463D01*
X36346Y786197D01*
X36625Y785925D01*
X36897Y785646D01*
X37163Y785361D01*
X37421Y785069D01*
X37672Y784771D01*
X37915Y784467D01*
X38151Y784157D01*
X38379Y783841D01*
X38600Y783520D01*
X38812Y783193D01*
X39016Y782861D01*
X39213Y782525D01*
X39401Y782183D01*
X39580Y781838D01*
X39751Y781487D01*
X39913Y781133D01*
X40067Y780775D01*
X40211Y780413D01*
X40347Y780048D01*
X40474Y779680D01*
X40591Y779308D01*
X40700Y778934D01*
X40799Y778557D01*
X40889Y778178D01*
X40970Y777797D01*
X41041Y777414D01*
X41103Y777029D01*
X41156Y776643D01*
X41199Y776256D01*
X41232Y775868D01*
X41256Y775479D01*
X41270Y775090D01*
X41275Y774700D01*
X41270Y774310D01*
X41256Y773921D01*
X41232Y773532D01*
X41199Y773144D01*
X41156Y772757D01*
X41103Y772371D01*
X41041Y771986D01*
X40970Y771603D01*
X40889Y771222D01*
X40799Y770843D01*
X40700Y770466D01*
X40591Y770092D01*
X40474Y769720D01*
X40347Y769352D01*
X40211Y768987D01*
X40067Y768625D01*
X39913Y768267D01*
X39751Y767913D01*
X39580Y767562D01*
X39401Y767217D01*
X39213Y766875D01*
X39016Y766539D01*
X38812Y766207D01*
X38600Y765880D01*
X38379Y765559D01*
X38151Y765243D01*
X37915Y764933D01*
X37672Y764629D01*
X37421Y764331D01*
X37163Y764039D01*
X36897Y763754D01*
X36625Y763475D01*
X36346Y763203D01*
X36061Y762937D01*
X35769Y762679D01*
X35471Y762428D01*
X35167Y762185D01*
X34857Y761949D01*
X34541Y761721D01*
X34220Y761500D01*
X33893Y761288D01*
X33561Y761084D01*
X33225Y760887D01*
X32883Y760699D01*
X32538Y760520D01*
X32187Y760349D01*
X31833Y760187D01*
X31475Y760033D01*
X31113Y759889D01*
X30748Y759753D01*
X30380Y759626D01*
X30008Y759509D01*
X29634Y759400D01*
X29257Y759301D01*
X28878Y759211D01*
X28497Y759130D01*
X28114Y759059D01*
X27729Y758997D01*
X27343Y758944D01*
X26956Y758901D01*
X26568Y758868D01*
X26179Y758844D01*
X25790Y758830D01*
X25400Y758825D01*
X25010Y758830D01*
X24621Y758844D01*
X24232Y758868D01*
X23844Y758901D01*
X23457Y758944D01*
X23071Y758997D01*
X22686Y759059D01*
X22303Y759130D01*
X21922Y759211D01*
X21543Y759301D01*
X21166Y759400D01*
X20792Y759509D01*
X20420Y759626D01*
X20052Y759753D01*
X19687Y759889D01*
X19325Y760033D01*
X18967Y760187D01*
X18613Y760349D01*
X18262Y760520D01*
X17917Y760699D01*
X17575Y760887D01*
X17239Y761084D01*
X16907Y761288D01*
X16580Y761500D01*
X16259Y761721D01*
X15943Y761949D01*
X15633Y762185D01*
X15329Y762428D01*
X15031Y762679D01*
X14739Y762937D01*
X14454Y763203D01*
X14175Y763475D01*
X13903Y763754D01*
X13637Y764039D01*
X13379Y764331D01*
X13128Y764629D01*
X12885Y764933D01*
X12649Y765243D01*
X12421Y765559D01*
X12200Y765880D01*
X11988Y766207D01*
X11784Y766539D01*
X11587Y766875D01*
X11399Y767217D01*
X11220Y767562D01*
X11049Y767913D01*
X10887Y768267D01*
X10733Y768625D01*
X10589Y768987D01*
X10453Y769352D01*
X10326Y769720D01*
X10209Y770092D01*
X10100Y770466D01*
X10001Y770843D01*
X9911Y771222D01*
X9830Y771603D01*
X9759Y771986D01*
X9697Y772371D01*
X9644Y772757D01*
X9601Y773144D01*
X9568Y773532D01*
X9544Y773921D01*
X9530Y774310D01*
X9525Y774700D01*
X962025Y965200D02*
X962030Y965590D01*
X962044Y965979D01*
X962068Y966368D01*
X962101Y966756D01*
X962144Y967143D01*
X962197Y967529D01*
X962259Y967914D01*
X962330Y968297D01*
X962411Y968678D01*
X962501Y969057D01*
X962600Y969434D01*
X962709Y969808D01*
X962826Y970180D01*
X962953Y970548D01*
X963089Y970913D01*
X963233Y971275D01*
X963387Y971633D01*
X963549Y971987D01*
X963720Y972338D01*
X963899Y972683D01*
X964087Y973025D01*
X964284Y973361D01*
X964488Y973693D01*
X964700Y974020D01*
X964921Y974341D01*
X965149Y974657D01*
X965385Y974967D01*
X965628Y975271D01*
X965879Y975569D01*
X966137Y975861D01*
X966403Y976146D01*
X966675Y976425D01*
X966954Y976697D01*
X967239Y976963D01*
X967531Y977221D01*
X967829Y977472D01*
X968133Y977715D01*
X968443Y977951D01*
X968759Y978179D01*
X969080Y978400D01*
X969407Y978612D01*
X969739Y978816D01*
X970075Y979013D01*
X970417Y979201D01*
X970762Y979380D01*
X971113Y979551D01*
X971467Y979713D01*
X971825Y979867D01*
X972187Y980011D01*
X972552Y980147D01*
X972920Y980274D01*
X973292Y980391D01*
X973666Y980500D01*
X974043Y980599D01*
X974422Y980689D01*
X974803Y980770D01*
X975186Y980841D01*
X975571Y980903D01*
X975957Y980956D01*
X976344Y980999D01*
X976732Y981032D01*
X977121Y981056D01*
X977510Y981070D01*
X977900Y981075D01*
X978290Y981070D01*
X978679Y981056D01*
X979068Y981032D01*
X979456Y980999D01*
X979843Y980956D01*
X980229Y980903D01*
X980614Y980841D01*
X980997Y980770D01*
X981378Y980689D01*
X981757Y980599D01*
X982134Y980500D01*
X982508Y980391D01*
X982880Y980274D01*
X983248Y980147D01*
X983613Y980011D01*
X983975Y979867D01*
X984333Y979713D01*
X984687Y979551D01*
X985038Y979380D01*
X985383Y979201D01*
X985725Y979013D01*
X986061Y978816D01*
X986393Y978612D01*
X986720Y978400D01*
X987041Y978179D01*
X987357Y977951D01*
X987667Y977715D01*
X987971Y977472D01*
X988269Y977221D01*
X988561Y976963D01*
X988846Y976697D01*
X989125Y976425D01*
X989397Y976146D01*
X989663Y975861D01*
X989921Y975569D01*
X990172Y975271D01*
X990415Y974967D01*
X990651Y974657D01*
X990879Y974341D01*
X991100Y974020D01*
X991312Y973693D01*
X991516Y973361D01*
X991713Y973025D01*
X991901Y972683D01*
X992080Y972338D01*
X992251Y971987D01*
X992413Y971633D01*
X992567Y971275D01*
X992711Y970913D01*
X992847Y970548D01*
X992974Y970180D01*
X993091Y969808D01*
X993200Y969434D01*
X993299Y969057D01*
X993389Y968678D01*
X993470Y968297D01*
X993541Y967914D01*
X993603Y967529D01*
X993656Y967143D01*
X993699Y966756D01*
X993732Y966368D01*
X993756Y965979D01*
X993770Y965590D01*
X993775Y965200D01*
X993770Y964810D01*
X993756Y964421D01*
X993732Y964032D01*
X993699Y963644D01*
X993656Y963257D01*
X993603Y962871D01*
X993541Y962486D01*
X993470Y962103D01*
X993389Y961722D01*
X993299Y961343D01*
X993200Y960966D01*
X993091Y960592D01*
X992974Y960220D01*
X992847Y959852D01*
X992711Y959487D01*
X992567Y959125D01*
X992413Y958767D01*
X992251Y958413D01*
X992080Y958062D01*
X991901Y957717D01*
X991713Y957375D01*
X991516Y957039D01*
X991312Y956707D01*
X991100Y956380D01*
X990879Y956059D01*
X990651Y955743D01*
X990415Y955433D01*
X990172Y955129D01*
X989921Y954831D01*
X989663Y954539D01*
X989397Y954254D01*
X989125Y953975D01*
X988846Y953703D01*
X988561Y953437D01*
X988269Y953179D01*
X987971Y952928D01*
X987667Y952685D01*
X987357Y952449D01*
X987041Y952221D01*
X986720Y952000D01*
X986393Y951788D01*
X986061Y951584D01*
X985725Y951387D01*
X985383Y951199D01*
X985038Y951020D01*
X984687Y950849D01*
X984333Y950687D01*
X983975Y950533D01*
X983613Y950389D01*
X983248Y950253D01*
X982880Y950126D01*
X982508Y950009D01*
X982134Y949900D01*
X981757Y949801D01*
X981378Y949711D01*
X980997Y949630D01*
X980614Y949559D01*
X980229Y949497D01*
X979843Y949444D01*
X979456Y949401D01*
X979068Y949368D01*
X978679Y949344D01*
X978290Y949330D01*
X977900Y949325D01*
X977510Y949330D01*
X977121Y949344D01*
X976732Y949368D01*
X976344Y949401D01*
X975957Y949444D01*
X975571Y949497D01*
X975186Y949559D01*
X974803Y949630D01*
X974422Y949711D01*
X974043Y949801D01*
X973666Y949900D01*
X973292Y950009D01*
X972920Y950126D01*
X972552Y950253D01*
X972187Y950389D01*
X971825Y950533D01*
X971467Y950687D01*
X971113Y950849D01*
X970762Y951020D01*
X970417Y951199D01*
X970075Y951387D01*
X969739Y951584D01*
X969407Y951788D01*
X969080Y952000D01*
X968759Y952221D01*
X968443Y952449D01*
X968133Y952685D01*
X967829Y952928D01*
X967531Y953179D01*
X967239Y953437D01*
X966954Y953703D01*
X966675Y953975D01*
X966403Y954254D01*
X966137Y954539D01*
X965879Y954831D01*
X965628Y955129D01*
X965385Y955433D01*
X965149Y955743D01*
X964921Y956059D01*
X964700Y956380D01*
X964488Y956707D01*
X964284Y957039D01*
X964087Y957375D01*
X963899Y957717D01*
X963720Y958062D01*
X963549Y958413D01*
X963387Y958767D01*
X963233Y959125D01*
X963089Y959487D01*
X962953Y959852D01*
X962826Y960220D01*
X962709Y960592D01*
X962600Y960966D01*
X962501Y961343D01*
X962411Y961722D01*
X962330Y962103D01*
X962259Y962486D01*
X962197Y962871D01*
X962144Y963257D01*
X962101Y963644D01*
X962068Y964032D01*
X962044Y964421D01*
X962030Y964810D01*
X962025Y965200D01*
X962025Y774700D02*
X962030Y775090D01*
X962044Y775479D01*
X962068Y775868D01*
X962101Y776256D01*
X962144Y776643D01*
X962197Y777029D01*
X962259Y777414D01*
X962330Y777797D01*
X962411Y778178D01*
X962501Y778557D01*
X962600Y778934D01*
X962709Y779308D01*
X962826Y779680D01*
X962953Y780048D01*
X963089Y780413D01*
X963233Y780775D01*
X963387Y781133D01*
X963549Y781487D01*
X963720Y781838D01*
X963899Y782183D01*
X964087Y782525D01*
X964284Y782861D01*
X964488Y783193D01*
X964700Y783520D01*
X964921Y783841D01*
X965149Y784157D01*
X965385Y784467D01*
X965628Y784771D01*
X965879Y785069D01*
X966137Y785361D01*
X966403Y785646D01*
X966675Y785925D01*
X966954Y786197D01*
X967239Y786463D01*
X967531Y786721D01*
X967829Y786972D01*
X968133Y787215D01*
X968443Y787451D01*
X968759Y787679D01*
X969080Y787900D01*
X969407Y788112D01*
X969739Y788316D01*
X970075Y788513D01*
X970417Y788701D01*
X970762Y788880D01*
X971113Y789051D01*
X971467Y789213D01*
X971825Y789367D01*
X972187Y789511D01*
X972552Y789647D01*
X972920Y789774D01*
X973292Y789891D01*
X973666Y790000D01*
X974043Y790099D01*
X974422Y790189D01*
X974803Y790270D01*
X975186Y790341D01*
X975571Y790403D01*
X975957Y790456D01*
X976344Y790499D01*
X976732Y790532D01*
X977121Y790556D01*
X977510Y790570D01*
X977900Y790575D01*
X978290Y790570D01*
X978679Y790556D01*
X979068Y790532D01*
X979456Y790499D01*
X979843Y790456D01*
X980229Y790403D01*
X980614Y790341D01*
X980997Y790270D01*
X981378Y790189D01*
X981757Y790099D01*
X982134Y790000D01*
X982508Y789891D01*
X982880Y789774D01*
X983248Y789647D01*
X983613Y789511D01*
X983975Y789367D01*
X984333Y789213D01*
X984687Y789051D01*
X985038Y788880D01*
X985383Y788701D01*
X985725Y788513D01*
X986061Y788316D01*
X986393Y788112D01*
X986720Y787900D01*
X987041Y787679D01*
X987357Y787451D01*
X987667Y787215D01*
X987971Y786972D01*
X988269Y786721D01*
X988561Y786463D01*
X988846Y786197D01*
X989125Y785925D01*
X989397Y785646D01*
X989663Y785361D01*
X989921Y785069D01*
X990172Y784771D01*
X990415Y784467D01*
X990651Y784157D01*
X990879Y783841D01*
X991100Y783520D01*
X991312Y783193D01*
X991516Y782861D01*
X991713Y782525D01*
X991901Y782183D01*
X992080Y781838D01*
X992251Y781487D01*
X992413Y781133D01*
X992567Y780775D01*
X992711Y780413D01*
X992847Y780048D01*
X992974Y779680D01*
X993091Y779308D01*
X993200Y778934D01*
X993299Y778557D01*
X993389Y778178D01*
X993470Y777797D01*
X993541Y777414D01*
X993603Y777029D01*
X993656Y776643D01*
X993699Y776256D01*
X993732Y775868D01*
X993756Y775479D01*
X993770Y775090D01*
X993775Y774700D01*
X993770Y774310D01*
X993756Y773921D01*
X993732Y773532D01*
X993699Y773144D01*
X993656Y772757D01*
X993603Y772371D01*
X993541Y771986D01*
X993470Y771603D01*
X993389Y771222D01*
X993299Y770843D01*
X993200Y770466D01*
X993091Y770092D01*
X992974Y769720D01*
X992847Y769352D01*
X992711Y768987D01*
X992567Y768625D01*
X992413Y768267D01*
X992251Y767913D01*
X992080Y767562D01*
X991901Y767217D01*
X991713Y766875D01*
X991516Y766539D01*
X991312Y766207D01*
X991100Y765880D01*
X990879Y765559D01*
X990651Y765243D01*
X990415Y764933D01*
X990172Y764629D01*
X989921Y764331D01*
X989663Y764039D01*
X989397Y763754D01*
X989125Y763475D01*
X988846Y763203D01*
X988561Y762937D01*
X988269Y762679D01*
X987971Y762428D01*
X987667Y762185D01*
X987357Y761949D01*
X987041Y761721D01*
X986720Y761500D01*
X986393Y761288D01*
X986061Y761084D01*
X985725Y760887D01*
X985383Y760699D01*
X985038Y760520D01*
X984687Y760349D01*
X984333Y760187D01*
X983975Y760033D01*
X983613Y759889D01*
X983248Y759753D01*
X982880Y759626D01*
X982508Y759509D01*
X982134Y759400D01*
X981757Y759301D01*
X981378Y759211D01*
X980997Y759130D01*
X980614Y759059D01*
X980229Y758997D01*
X979843Y758944D01*
X979456Y758901D01*
X979068Y758868D01*
X978679Y758844D01*
X978290Y758830D01*
X977900Y758825D01*
X977510Y758830D01*
X977121Y758844D01*
X976732Y758868D01*
X976344Y758901D01*
X975957Y758944D01*
X975571Y758997D01*
X975186Y759059D01*
X974803Y759130D01*
X974422Y759211D01*
X974043Y759301D01*
X973666Y759400D01*
X973292Y759509D01*
X972920Y759626D01*
X972552Y759753D01*
X972187Y759889D01*
X971825Y760033D01*
X971467Y760187D01*
X971113Y760349D01*
X970762Y760520D01*
X970417Y760699D01*
X970075Y760887D01*
X969739Y761084D01*
X969407Y761288D01*
X969080Y761500D01*
X968759Y761721D01*
X968443Y761949D01*
X968133Y762185D01*
X967829Y762428D01*
X967531Y762679D01*
X967239Y762937D01*
X966954Y763203D01*
X966675Y763475D01*
X966403Y763754D01*
X966137Y764039D01*
X965879Y764331D01*
X965628Y764629D01*
X965385Y764933D01*
X965149Y765243D01*
X964921Y765559D01*
X964700Y765880D01*
X964488Y766207D01*
X964284Y766539D01*
X964087Y766875D01*
X963899Y767217D01*
X963720Y767562D01*
X963549Y767913D01*
X963387Y768267D01*
X963233Y768625D01*
X963089Y768987D01*
X962953Y769352D01*
X962826Y769720D01*
X962709Y770092D01*
X962600Y770466D01*
X962501Y770843D01*
X962411Y771222D01*
X962330Y771603D01*
X962259Y771986D01*
X962197Y772371D01*
X962144Y772757D01*
X962101Y773144D01*
X962068Y773532D01*
X962044Y773921D01*
X962030Y774310D01*
X962025Y774700D01*
D11*
X20320Y406400D03*
X20320Y431800D03*
D12*
X622300Y622300D03*
X622300Y596900D03*
X431800Y368300D03*
X431800Y342900D03*
D13*
X622300Y469900D03*
D12*
X622300Y419100D03*
X723900Y482600D03*
X723900Y457200D03*
D11*
X406400Y858520D03*
X406400Y883920D03*
X723900Y558800D03*
X723900Y533400D03*
X723900Y508000D03*
X901700Y685800D03*
X901700Y660400D03*
X901700Y635000D03*
X427990Y756920D03*
X427990Y782320D03*
X242570Y95250D03*
X240030Y222250D03*
X321310Y248920D03*
X723900Y660400D03*
X723900Y635000D03*
X723900Y609600D03*
X723900Y584200D03*
D14*
X101600Y698500D03*
X101600Y723900D03*
D12*
X850900Y320040D03*
X850900Y294640D03*
D14*
X139700Y622300D03*
X139700Y723900D03*
D12*
X241300Y749300D03*
X241300Y647700D03*
X723900Y406400D03*
X723900Y304800D03*
X692150Y405130D03*
X692150Y303530D03*
D15*
X749300Y276860D03*
X850900Y276860D03*
D16*
X723900Y863600D03*
X622300Y863600D03*
D12*
X609600Y342900D03*
X609600Y241300D03*
X635000Y342900D03*
X635000Y241300D03*
D17*
X49860Y692450D03*
X49860Y685950D03*
X49860Y679450D03*
X49860Y672950D03*
X49860Y666450D03*
D18*
X49860Y704450D03*
X49860Y654450D03*
D19*
X22860Y714450D03*
X22860Y644450D03*
D20*
X723500Y800100D03*
X673500Y800100D03*
D11*
X476250Y883920D03*
X476250Y858520D03*
X476250Y833120D03*
X476250Y807720D03*
X476250Y782320D03*
X476250Y756920D03*
X476250Y731520D03*
X552450Y883920D03*
X552450Y858520D03*
X552450Y833120D03*
X552450Y807720D03*
X552450Y782320D03*
X552450Y756920D03*
X552450Y731520D03*
X297180Y45720D03*
X297180Y71120D03*
X297180Y96520D03*
X297180Y121920D03*
X297180Y147320D03*
X297180Y172720D03*
X297180Y198120D03*
X297180Y223520D03*
X297180Y248920D03*
X297180Y274320D03*
X297180Y299720D03*
X271780Y299720D03*
X271780Y274320D03*
X271780Y248920D03*
X271780Y223520D03*
X271780Y198120D03*
X271780Y172720D03*
X271780Y147320D03*
X271780Y121920D03*
X271780Y96520D03*
X271780Y71120D03*
X271780Y45720D03*
D21*
X25400Y558400D03*
X25400Y533400D03*
X25400Y508400D03*
D11*
X88900Y584200D03*
X114300Y584200D03*
X139700Y584200D03*
X165100Y584200D03*
D22*
X475488Y673100D02*
X489712Y673100D01*
X489712Y647700D02*
X475488Y647700D01*
X475488Y622300D02*
X489712Y622300D01*
X489712Y596900D02*
X475488Y596900D01*
X475488Y571500D02*
X489712Y571500D01*
X489712Y546100D02*
X475488Y546100D01*
X475488Y520700D02*
X489712Y520700D01*
X489712Y495300D02*
X475488Y495300D01*
X475488Y469900D02*
X489712Y469900D01*
X489712Y444500D02*
X475488Y444500D01*
X475488Y419100D02*
X489712Y419100D01*
X489712Y393700D02*
X475488Y393700D01*
X475488Y368300D02*
X489712Y368300D01*
X489712Y342900D02*
X475488Y342900D01*
X551688Y342900D02*
X565912Y342900D01*
X565912Y368300D02*
X551688Y368300D01*
X551688Y393700D02*
X565912Y393700D01*
X565912Y419100D02*
X551688Y419100D01*
X551688Y444500D02*
X565912Y444500D01*
X565912Y469900D02*
X551688Y469900D01*
X551688Y495300D02*
X565912Y495300D01*
X565912Y520700D02*
X551688Y520700D01*
X551688Y546100D02*
X565912Y546100D01*
X565912Y571500D02*
X551688Y571500D01*
X551688Y596900D02*
X565912Y596900D01*
X565912Y622300D02*
X551688Y622300D01*
X551688Y647700D02*
X565912Y647700D01*
X565912Y673100D02*
X551688Y673100D01*
D11*
X288290Y628650D03*
X288290Y603250D03*
X288290Y577850D03*
X288290Y552450D03*
X288290Y527050D03*
D20*
X329800Y711200D03*
X279800Y711200D03*
D11*
X71120Y327660D03*
X71120Y302260D03*
X71120Y276860D03*
X71120Y251460D03*
X71120Y226060D03*
X71120Y200660D03*
X125730Y337820D03*
X125730Y312420D03*
X125730Y287020D03*
X125730Y261620D03*
X125730Y236220D03*
X125730Y210820D03*
X125730Y185420D03*
D22*
X767588Y685800D02*
X781812Y685800D01*
X781812Y660400D02*
X767588Y660400D01*
X767588Y635000D02*
X781812Y635000D01*
X781812Y609600D02*
X767588Y609600D01*
X767588Y584200D02*
X781812Y584200D01*
X781812Y558800D02*
X767588Y558800D01*
X767588Y533400D02*
X781812Y533400D01*
X781812Y508000D02*
X767588Y508000D01*
X767588Y482600D02*
X781812Y482600D01*
X781812Y457200D02*
X767588Y457200D01*
X767588Y431800D02*
X781812Y431800D01*
X781812Y406400D02*
X767588Y406400D01*
X767588Y381000D02*
X781812Y381000D01*
X781812Y355600D02*
X767588Y355600D01*
X843788Y355600D02*
X858012Y355600D01*
X858012Y381000D02*
X843788Y381000D01*
X843788Y406400D02*
X858012Y406400D01*
X858012Y431800D02*
X843788Y431800D01*
X843788Y457200D02*
X858012Y457200D01*
X858012Y482600D02*
X843788Y482600D01*
X843788Y508000D02*
X858012Y508000D01*
X858012Y533400D02*
X843788Y533400D01*
X843788Y558800D02*
X858012Y558800D01*
X858012Y584200D02*
X843788Y584200D01*
X843788Y609600D02*
X858012Y609600D01*
X858012Y635000D02*
X843788Y635000D01*
X843788Y660400D02*
X858012Y660400D01*
X858012Y685800D02*
X843788Y685800D01*
D11*
X546100Y25400D03*
X546100Y50800D03*
X546100Y76200D03*
X546100Y101600D03*
X546100Y127000D03*
X546100Y152400D03*
X546100Y177800D03*
X546100Y203200D03*
X571500Y25400D03*
X571500Y50800D03*
X571500Y76200D03*
X571500Y101600D03*
X571500Y127000D03*
X571500Y152400D03*
X571500Y177800D03*
X571500Y203200D03*
X596900Y25400D03*
X596900Y50800D03*
X596900Y76200D03*
X596900Y101600D03*
X596900Y127000D03*
X596900Y152400D03*
X596900Y177800D03*
X596900Y203200D03*
X622300Y25400D03*
X622300Y50800D03*
X622300Y76200D03*
X622300Y101600D03*
X622300Y127000D03*
X622300Y152400D03*
X622300Y177800D03*
X622300Y203200D03*
X647700Y25400D03*
X647700Y50800D03*
X647700Y76200D03*
X647700Y101600D03*
X647700Y127000D03*
X647700Y152400D03*
X647700Y177800D03*
X647700Y203200D03*
X673100Y25400D03*
X673100Y50800D03*
X673100Y76200D03*
X673100Y101600D03*
X673100Y127000D03*
X673100Y152400D03*
X673100Y177800D03*
X673100Y203200D03*
X698500Y25400D03*
X698500Y50800D03*
X698500Y76200D03*
X698500Y101600D03*
X698500Y127000D03*
X698500Y152400D03*
X698500Y177800D03*
X698500Y203200D03*
X723900Y25400D03*
X723900Y50800D03*
X723900Y76200D03*
X723900Y101600D03*
X723900Y127000D03*
X723900Y152400D03*
X723900Y177800D03*
X723900Y203200D03*
X749300Y25400D03*
X749300Y50800D03*
X749300Y76200D03*
X749300Y101600D03*
X749300Y127000D03*
X749300Y152400D03*
X749300Y177800D03*
X749300Y203200D03*
X774700Y25400D03*
X774700Y50800D03*
X774700Y76200D03*
X774700Y101600D03*
X774700Y127000D03*
X774700Y152400D03*
X774700Y177800D03*
X774700Y203200D03*
X850900Y25400D03*
X850900Y50800D03*
X850900Y76200D03*
X850900Y101600D03*
X850900Y127000D03*
X850900Y152400D03*
X850900Y177800D03*
X850900Y203200D03*
X495300Y25400D03*
X495300Y50800D03*
X495300Y76200D03*
X495300Y101600D03*
X495300Y127000D03*
X495300Y152400D03*
X495300Y177800D03*
X495300Y203200D03*
X825500Y25400D03*
X825500Y50800D03*
X825500Y76200D03*
X825500Y101600D03*
X825500Y127000D03*
X825500Y152400D03*
X825500Y177800D03*
X825500Y203200D03*
X469900Y25400D03*
X469900Y50800D03*
X469900Y76200D03*
X469900Y101600D03*
X469900Y127000D03*
X469900Y152400D03*
X469900Y177800D03*
X469900Y203200D03*
D23*
X70150Y666450D02*
X49860Y666450D01*
X70150Y666450D02*
X76200Y660400D01*
D24*
X76200Y660400D03*
D23*
X69550Y692450D02*
X49860Y692450D01*
X88900Y621900D02*
X25400Y558400D01*
X88900Y673100D02*
X69550Y692450D01*
X88900Y673100D02*
X88900Y621900D01*
X25400Y436880D02*
X20320Y431800D01*
X25400Y436880D02*
X25400Y508400D01*
X25400Y533400D02*
X114300Y533400D01*
X139700Y558800D01*
X139700Y584200D01*
X190500Y635000D02*
X190500Y749300D01*
X215900Y774700D01*
X190500Y635000D02*
X139700Y584200D01*
X215900Y774700D02*
X330200Y774700D01*
X381000Y825500D02*
X419100Y825500D01*
X452120Y858520D02*
X476250Y858520D01*
X381000Y825500D02*
X330200Y774700D01*
X419100Y825500D02*
X452120Y858520D01*
X25400Y368300D02*
X25400Y114300D01*
X457200Y12700D02*
X469900Y25400D01*
X457200Y12700D02*
X127000Y12700D01*
X25400Y114300D01*
X25400Y368300D02*
X50800Y393700D01*
X50800Y508000D01*
X25400Y533400D01*
X285750Y603250D02*
X288290Y603250D01*
X285750Y603250D02*
X241300Y647700D01*
X288290Y603250D02*
X345440Y660400D01*
X546100Y660400D01*
X558800Y673100D01*
X571500Y673100D02*
X622300Y622300D01*
X571500Y673100D02*
X558800Y673100D01*
X558800Y725170D01*
X552450Y731520D01*
X538480Y731520D01*
X520700Y749300D01*
X520700Y826770D01*
X552450Y858520D01*
X557530Y863600D01*
X622300Y863600D01*
X622300Y622300D02*
X647700Y622300D01*
X685800Y584200D01*
X685800Y508000D02*
X711200Y482600D01*
X723900Y482600D01*
X685800Y508000D02*
X685800Y584200D01*
X723900Y482600D02*
X774700Y482600D01*
X825500Y431800D01*
X850900Y431800D01*
X723900Y304800D02*
X736600Y292100D01*
X800100Y292100D01*
X825500Y317500D01*
X825500Y431800D01*
X693420Y304800D02*
X692150Y303530D01*
X693420Y304800D02*
X723900Y304800D01*
X850900Y241300D02*
X850900Y203200D01*
X850900Y177800D01*
X850900Y152400D01*
X850900Y127000D01*
X850900Y101600D01*
X850900Y76200D01*
X850900Y50800D01*
X850900Y25400D01*
X692150Y298450D02*
X692150Y303530D01*
X692150Y298450D02*
X635000Y241300D01*
X609600Y241300D01*
X533400Y241300D01*
D24*
X533400Y241300D03*
X520700Y368300D03*
D23*
X482600Y368300D01*
X88900Y584200D02*
X88900Y596900D01*
X101600Y609600D01*
X101600Y698500D01*
X838200Y254000D02*
X850900Y241300D01*
X838200Y254000D02*
X800100Y254000D01*
X800100Y292100D01*
D24*
X445770Y45720D03*
D23*
X297180Y45720D01*
X139700Y723900D02*
X101600Y723900D01*
X288290Y628650D02*
X332740Y673100D01*
X482600Y673100D01*
X329800Y711200D02*
X288290Y669690D01*
X288290Y628650D01*
X329800Y711200D02*
X291700Y749300D01*
X241300Y749300D01*
X558800Y469900D02*
X622300Y469900D01*
D24*
X317500Y609600D03*
D23*
X317500Y495300D01*
D24*
X317500Y495300D03*
X63500Y495300D03*
D23*
X63500Y381000D01*
X38100Y355600D01*
X38100Y309880D01*
X71120Y276860D01*
D24*
X76200Y508000D03*
D23*
X76200Y373380D01*
X52070Y349250D01*
X52070Y316230D01*
X66040Y302260D01*
X71120Y302260D01*
D24*
X355600Y584200D03*
D23*
X355600Y444500D01*
D24*
X355600Y444500D03*
X100330Y444500D03*
D23*
X100076Y444246D02*
X100076Y312674D01*
X125730Y287020D01*
X100076Y444246D02*
X100330Y444500D01*
D24*
X139700Y457200D03*
D23*
X139700Y224790D01*
X125730Y210820D01*
X723900Y406400D02*
X774700Y406400D01*
D24*
X660400Y393700D03*
D23*
X558800Y393700D01*
X711200Y381000D02*
X774700Y381000D01*
X711200Y381000D02*
X692150Y400050D01*
X692150Y405130D01*
X584200Y419100D02*
X558800Y419100D01*
X584200Y419100D02*
X598170Y405130D01*
X692150Y405130D01*
X876300Y345440D02*
X876300Y482600D01*
X876300Y345440D02*
X850900Y320040D01*
X876300Y482600D02*
X850900Y508000D01*
X723900Y800500D02*
X723900Y863600D01*
X723900Y800500D02*
X723500Y800100D01*
X850900Y294640D02*
X850900Y276860D01*
X850900Y609600D02*
X914400Y609600D01*
X927100Y622300D01*
X927100Y723900D01*
X901700Y749300D01*
X635000Y749300D02*
X552450Y831850D01*
X552450Y833120D01*
X635000Y749300D02*
X901700Y749300D01*
X825500Y609600D02*
X850900Y584200D01*
X825500Y609600D02*
X825500Y711200D01*
X800100Y736600D01*
X622300Y736600D01*
X552450Y806450D01*
X552450Y807720D01*
X838200Y558800D02*
X850900Y558800D01*
X838200Y558800D02*
X812800Y584200D01*
X812800Y698500D01*
X787400Y723900D01*
X609600Y723900D01*
X552450Y781050D01*
X552450Y782320D01*
X800100Y584200D02*
X850900Y533400D01*
X800100Y584200D02*
X800100Y685800D01*
X774700Y711200D01*
X596900Y711200D01*
X552450Y755650D02*
X552450Y756920D01*
X552450Y755650D02*
X596900Y711200D01*
X558800Y368300D02*
X563880Y363220D01*
X614680Y363220D01*
X635000Y342900D01*
X558800Y368300D02*
X546100Y368300D01*
X533400Y355600D01*
X457200Y266700D02*
X431800Y241300D01*
X431800Y88900D01*
X533400Y266700D02*
X533400Y355600D01*
X533400Y266700D02*
X457200Y266700D01*
D24*
X431800Y88900D03*
X431800Y34290D03*
D23*
X430530Y33020D01*
X316770Y33020D01*
X310928Y27178D01*
X254000Y27178D01*
X254000Y53340D01*
X271780Y71120D01*
X558800Y342900D02*
X609600Y342900D01*
X558800Y342900D02*
X558800Y266700D01*
X546100Y254000D01*
X469900Y254000D01*
X444500Y228600D01*
X444500Y76200D02*
X439420Y71120D01*
X297180Y71120D01*
X444500Y76200D02*
X444500Y228600D01*
X482600Y647700D02*
X368300Y647700D01*
X330200Y609600D01*
D24*
X330200Y469900D03*
X177800Y469900D03*
D23*
X177800Y198120D01*
X330200Y469900D02*
X330200Y609600D01*
D24*
X177800Y198120D03*
X203200Y416560D03*
D23*
X203200Y172720D01*
D24*
X203200Y172720D03*
X152400Y482600D03*
D23*
X152400Y127000D02*
X157480Y121920D01*
X271780Y121920D01*
X152400Y127000D02*
X152400Y482600D01*
X457200Y520700D02*
X482600Y520700D01*
X405130Y121920D02*
X297180Y121920D01*
X457200Y304800D02*
X457200Y520700D01*
X405130Y252730D02*
X405130Y121920D01*
X405130Y252730D02*
X457200Y304800D01*
D24*
X444500Y444500D03*
D23*
X406400Y406400D01*
X391160Y264160D02*
X391160Y171450D01*
D24*
X391160Y171450D03*
D23*
X406400Y279400D02*
X406400Y406400D01*
X406400Y279400D02*
X391160Y264160D01*
X368300Y622300D02*
X482600Y622300D01*
X368300Y622300D02*
X342900Y596900D01*
D24*
X368300Y198120D03*
D23*
X368300Y393700D01*
X342900Y419100D01*
X342900Y596900D01*
X288290Y552450D02*
X171450Y552450D01*
X88900Y469900D01*
X88900Y149860D01*
D24*
X88900Y149860D03*
D23*
X288290Y368300D02*
X288290Y527050D01*
X288290Y367030D02*
X288290Y364490D01*
X288290Y367030D02*
X288290Y368300D01*
X288290Y364490D02*
X295910Y364490D01*
X355600Y304800D01*
X355600Y165100D01*
X337820Y147320D01*
X297180Y147320D01*
D24*
X190500Y393700D03*
D23*
X190500Y248920D01*
D24*
X190500Y248920D03*
D23*
X482600Y292100D02*
X482600Y342900D01*
D24*
X482600Y292100D03*
X381000Y508000D03*
X381000Y304800D03*
D23*
X381000Y508000D01*
D24*
X393700Y482600D03*
D23*
X393700Y406400D01*
D24*
X393700Y406400D03*
X215900Y406400D03*
D23*
X215900Y298450D01*
X270510Y298450D01*
X271780Y299720D01*
X297180Y96520D02*
X414020Y96520D01*
X419100Y101600D01*
X419100Y254000D01*
X444500Y279400D01*
X520700Y279400D01*
X527050Y285750D01*
X527050Y360463D01*
X538589Y372001D02*
X538589Y388511D01*
X538589Y372001D02*
X527050Y360463D01*
X538589Y388511D02*
X508000Y419100D01*
X482600Y419100D01*
X321310Y248920D02*
X297180Y248920D01*
X270510Y222250D02*
X240030Y222250D01*
X270510Y222250D02*
X271780Y223520D01*
X270510Y95250D02*
X242570Y95250D01*
X270510Y95250D02*
X271780Y96520D01*
X723900Y660400D02*
X774700Y660400D01*
X774700Y635000D02*
X723900Y635000D01*
X723900Y609600D02*
X774700Y609600D01*
X774700Y584200D02*
X723900Y584200D01*
X723900Y558800D02*
X774700Y558800D01*
X774700Y533400D02*
X723900Y533400D01*
X723900Y508000D02*
X774700Y508000D01*
X850900Y685800D02*
X901700Y685800D01*
X901700Y660400D02*
X850900Y660400D01*
X850900Y635000D02*
X901700Y635000D01*
M02*
