G04 EAGLE Gerber RS-274X export*
G75*
%MOMM*%
%FSLAX34Y34*%
%LPD*%
%INTop Soldermask*%
%IPPOS*%
%AMOC8*
5,1,8,0,0,1.08239X$1,22.5*%
G01*
%ADD10C,3.378200*%
%ADD11C,2.082800*%
%ADD12P,1.759533X8X292.500000*%
%ADD13C,1.625600*%
%ADD14P,1.759533X8X112.500000*%
%ADD15P,1.759533X8X22.500000*%
%ADD16P,1.759533X8X202.500000*%
%ADD17R,1.553200X0.603200*%
%ADD18C,1.662800*%
%ADD19C,2.453200*%
%ADD20C,1.812800*%
%ADD21C,1.712800*%
%ADD22C,1.625600*%
%ADD23C,1.261200*%


D10*
X25400Y965200D03*
X25400Y774700D03*
X977900Y965200D03*
X977900Y774700D03*
D11*
X20320Y406400D03*
X20320Y431800D03*
D12*
X622300Y622300D03*
X622300Y596900D03*
X431800Y368300D03*
X431800Y342900D03*
D13*
X622300Y469900D03*
D12*
X622300Y419100D03*
X723900Y482600D03*
X723900Y457200D03*
D11*
X406400Y858520D03*
X406400Y883920D03*
X723900Y558800D03*
X723900Y533400D03*
X723900Y508000D03*
X901700Y685800D03*
X901700Y660400D03*
X901700Y635000D03*
X427990Y756920D03*
X427990Y782320D03*
X242570Y95250D03*
X240030Y222250D03*
X321310Y248920D03*
X723900Y660400D03*
X723900Y635000D03*
X723900Y609600D03*
X723900Y584200D03*
D14*
X101600Y698500D03*
X101600Y723900D03*
D12*
X850900Y320040D03*
X850900Y294640D03*
D14*
X139700Y622300D03*
X139700Y723900D03*
D12*
X241300Y749300D03*
X241300Y647700D03*
X723900Y406400D03*
X723900Y304800D03*
X692150Y405130D03*
X692150Y303530D03*
D15*
X749300Y276860D03*
X850900Y276860D03*
D16*
X723900Y863600D03*
X622300Y863600D03*
D12*
X609600Y342900D03*
X609600Y241300D03*
X635000Y342900D03*
X635000Y241300D03*
D17*
X49860Y692450D03*
X49860Y685950D03*
X49860Y679450D03*
X49860Y672950D03*
X49860Y666450D03*
D18*
X49860Y704450D03*
X49860Y654450D03*
D19*
X22860Y714450D03*
X22860Y644450D03*
D20*
X723500Y800100D03*
X673500Y800100D03*
D11*
X476250Y883920D03*
X476250Y858520D03*
X476250Y833120D03*
X476250Y807720D03*
X476250Y782320D03*
X476250Y756920D03*
X476250Y731520D03*
X552450Y883920D03*
X552450Y858520D03*
X552450Y833120D03*
X552450Y807720D03*
X552450Y782320D03*
X552450Y756920D03*
X552450Y731520D03*
X297180Y45720D03*
X297180Y71120D03*
X297180Y96520D03*
X297180Y121920D03*
X297180Y147320D03*
X297180Y172720D03*
X297180Y198120D03*
X297180Y223520D03*
X297180Y248920D03*
X297180Y274320D03*
X297180Y299720D03*
X271780Y299720D03*
X271780Y274320D03*
X271780Y248920D03*
X271780Y223520D03*
X271780Y198120D03*
X271780Y172720D03*
X271780Y147320D03*
X271780Y121920D03*
X271780Y96520D03*
X271780Y71120D03*
X271780Y45720D03*
D21*
X25400Y558400D03*
X25400Y533400D03*
X25400Y508400D03*
D11*
X88900Y584200D03*
X114300Y584200D03*
X139700Y584200D03*
X165100Y584200D03*
D22*
X475488Y673100D02*
X489712Y673100D01*
X489712Y647700D02*
X475488Y647700D01*
X475488Y622300D02*
X489712Y622300D01*
X489712Y596900D02*
X475488Y596900D01*
X475488Y571500D02*
X489712Y571500D01*
X489712Y546100D02*
X475488Y546100D01*
X475488Y520700D02*
X489712Y520700D01*
X489712Y495300D02*
X475488Y495300D01*
X475488Y469900D02*
X489712Y469900D01*
X489712Y444500D02*
X475488Y444500D01*
X475488Y419100D02*
X489712Y419100D01*
X489712Y393700D02*
X475488Y393700D01*
X475488Y368300D02*
X489712Y368300D01*
X489712Y342900D02*
X475488Y342900D01*
X551688Y342900D02*
X565912Y342900D01*
X565912Y368300D02*
X551688Y368300D01*
X551688Y393700D02*
X565912Y393700D01*
X565912Y419100D02*
X551688Y419100D01*
X551688Y444500D02*
X565912Y444500D01*
X565912Y469900D02*
X551688Y469900D01*
X551688Y495300D02*
X565912Y495300D01*
X565912Y520700D02*
X551688Y520700D01*
X551688Y546100D02*
X565912Y546100D01*
X565912Y571500D02*
X551688Y571500D01*
X551688Y596900D02*
X565912Y596900D01*
X565912Y622300D02*
X551688Y622300D01*
X551688Y647700D02*
X565912Y647700D01*
X565912Y673100D02*
X551688Y673100D01*
D11*
X288290Y628650D03*
X288290Y603250D03*
X288290Y577850D03*
X288290Y552450D03*
X288290Y527050D03*
D20*
X329800Y711200D03*
X279800Y711200D03*
D11*
X71120Y327660D03*
X71120Y302260D03*
X71120Y276860D03*
X71120Y251460D03*
X71120Y226060D03*
X71120Y200660D03*
X125730Y337820D03*
X125730Y312420D03*
X125730Y287020D03*
X125730Y261620D03*
X125730Y236220D03*
X125730Y210820D03*
X125730Y185420D03*
D22*
X767588Y685800D02*
X781812Y685800D01*
X781812Y660400D02*
X767588Y660400D01*
X767588Y635000D02*
X781812Y635000D01*
X781812Y609600D02*
X767588Y609600D01*
X767588Y584200D02*
X781812Y584200D01*
X781812Y558800D02*
X767588Y558800D01*
X767588Y533400D02*
X781812Y533400D01*
X781812Y508000D02*
X767588Y508000D01*
X767588Y482600D02*
X781812Y482600D01*
X781812Y457200D02*
X767588Y457200D01*
X767588Y431800D02*
X781812Y431800D01*
X781812Y406400D02*
X767588Y406400D01*
X767588Y381000D02*
X781812Y381000D01*
X781812Y355600D02*
X767588Y355600D01*
X843788Y355600D02*
X858012Y355600D01*
X858012Y381000D02*
X843788Y381000D01*
X843788Y406400D02*
X858012Y406400D01*
X858012Y431800D02*
X843788Y431800D01*
X843788Y457200D02*
X858012Y457200D01*
X858012Y482600D02*
X843788Y482600D01*
X843788Y508000D02*
X858012Y508000D01*
X858012Y533400D02*
X843788Y533400D01*
X843788Y558800D02*
X858012Y558800D01*
X858012Y584200D02*
X843788Y584200D01*
X843788Y609600D02*
X858012Y609600D01*
X858012Y635000D02*
X843788Y635000D01*
X843788Y660400D02*
X858012Y660400D01*
X858012Y685800D02*
X843788Y685800D01*
D11*
X546100Y25400D03*
X546100Y50800D03*
X546100Y76200D03*
X546100Y101600D03*
X546100Y127000D03*
X546100Y152400D03*
X546100Y177800D03*
X546100Y203200D03*
X571500Y25400D03*
X571500Y50800D03*
X571500Y76200D03*
X571500Y101600D03*
X571500Y127000D03*
X571500Y152400D03*
X571500Y177800D03*
X571500Y203200D03*
X596900Y25400D03*
X596900Y50800D03*
X596900Y76200D03*
X596900Y101600D03*
X596900Y127000D03*
X596900Y152400D03*
X596900Y177800D03*
X596900Y203200D03*
X622300Y25400D03*
X622300Y50800D03*
X622300Y76200D03*
X622300Y101600D03*
X622300Y127000D03*
X622300Y152400D03*
X622300Y177800D03*
X622300Y203200D03*
X647700Y25400D03*
X647700Y50800D03*
X647700Y76200D03*
X647700Y101600D03*
X647700Y127000D03*
X647700Y152400D03*
X647700Y177800D03*
X647700Y203200D03*
X673100Y25400D03*
X673100Y50800D03*
X673100Y76200D03*
X673100Y101600D03*
X673100Y127000D03*
X673100Y152400D03*
X673100Y177800D03*
X673100Y203200D03*
X698500Y25400D03*
X698500Y50800D03*
X698500Y76200D03*
X698500Y101600D03*
X698500Y127000D03*
X698500Y152400D03*
X698500Y177800D03*
X698500Y203200D03*
X723900Y25400D03*
X723900Y50800D03*
X723900Y76200D03*
X723900Y101600D03*
X723900Y127000D03*
X723900Y152400D03*
X723900Y177800D03*
X723900Y203200D03*
X749300Y25400D03*
X749300Y50800D03*
X749300Y76200D03*
X749300Y101600D03*
X749300Y127000D03*
X749300Y152400D03*
X749300Y177800D03*
X749300Y203200D03*
X774700Y25400D03*
X774700Y50800D03*
X774700Y76200D03*
X774700Y101600D03*
X774700Y127000D03*
X774700Y152400D03*
X774700Y177800D03*
X774700Y203200D03*
X850900Y25400D03*
X850900Y50800D03*
X850900Y76200D03*
X850900Y101600D03*
X850900Y127000D03*
X850900Y152400D03*
X850900Y177800D03*
X850900Y203200D03*
X495300Y25400D03*
X495300Y50800D03*
X495300Y76200D03*
X495300Y101600D03*
X495300Y127000D03*
X495300Y152400D03*
X495300Y177800D03*
X495300Y203200D03*
X825500Y25400D03*
X825500Y50800D03*
X825500Y76200D03*
X825500Y101600D03*
X825500Y127000D03*
X825500Y152400D03*
X825500Y177800D03*
X825500Y203200D03*
X469900Y25400D03*
X469900Y50800D03*
X469900Y76200D03*
X469900Y101600D03*
X469900Y127000D03*
X469900Y152400D03*
X469900Y177800D03*
X469900Y203200D03*
D23*
X76200Y660400D03*
X533400Y241300D03*
X520700Y368300D03*
X445770Y45720D03*
X317500Y609600D03*
X317500Y495300D03*
X63500Y495300D03*
X76200Y508000D03*
X355600Y584200D03*
X355600Y444500D03*
X100330Y444500D03*
X139700Y457200D03*
X660400Y393700D03*
X431800Y88900D03*
X431800Y34290D03*
X330200Y469900D03*
X177800Y469900D03*
X177800Y198120D03*
X203200Y416560D03*
X203200Y172720D03*
X152400Y482600D03*
X444500Y444500D03*
X391160Y171450D03*
X368300Y198120D03*
X88900Y149860D03*
X190500Y393700D03*
X190500Y248920D03*
X482600Y292100D03*
X381000Y508000D03*
X381000Y304800D03*
X393700Y482600D03*
X393700Y406400D03*
X215900Y406400D03*
M02*
