M48
;GenerationSoftware,Autodesk,EAGLE,9.6.2*%
;CreationDate,2021-06-08T20:30:56Z*%
FMAT,2
ICI,OFF
METRIC,TZ,000.000
T8C0.550
T7C0.813
T6C0.850
T5C0.900
T4C1.000
T3C1.016
T2C1.500
T1C3.175
%
G90
M71
T1
X97790Y77470
X2540Y96520
X2540Y77470
X97790Y96520
T2
X2286Y64445
X2286Y71445
T3
X29718Y9652
X57150Y12700
X57150Y10160
X57150Y7620
X57150Y5080
X57150Y2540
X54610Y20320
X54610Y17780
X54610Y15240
X54610Y12700
X54610Y10160
X54610Y7620
X54610Y5080
X54610Y2540
X12573Y18542
X12573Y21082
X12573Y23622
X12573Y26162
X12573Y28702
X12573Y31242
X12573Y33782
X7112Y20066
X7112Y22606
X7112Y25146
X7112Y27686
X7112Y30226
X7112Y32766
X46990Y2540
X46990Y5080
X28829Y52705
X28829Y55245
X28829Y57785
X28829Y60325
X2032Y40640
X2032Y43180
X29718Y12192
X74930Y20320
X29718Y14732
X29718Y17272
X29718Y19812
X29718Y22352
X29718Y24892
X29718Y27432
X40640Y85852
X40640Y88392
X72390Y55880
X72390Y53340
X72390Y50800
X90170Y68580
X90170Y66040
X90170Y63500
X42799Y75692
X42799Y78232
X24257Y9525
X24003Y22225
X32131Y24892
X72390Y66040
X72390Y63500
X72390Y60960
X72390Y58420
X29718Y29972
X27178Y29972
X27178Y27432
X27178Y24892
X27178Y22352
X27178Y19812
X27178Y17272
X27178Y14732
X27178Y12192
X27178Y9652
X27178Y7112
X27178Y4572
X46990Y7620
X55245Y75692
X46990Y10160
X8890Y58420
X28829Y62865
X11430Y58420
X13970Y58420
X16510Y58420
X46990Y12700
X46990Y15240
X46990Y17780
X46990Y20320
X47625Y88392
X47625Y85852
X47625Y83312
X47625Y80772
X47625Y78232
X47625Y75692
X47625Y73152
X55245Y88392
X55245Y85852
X55245Y83312
X55245Y80772
X55245Y78232
X64770Y7620
X55245Y73152
X29718Y4572
X29718Y7112
X57150Y15240
X57150Y17780
X57150Y20320
X59690Y2540
X59690Y5080
X59690Y7620
X59690Y10160
X59690Y12700
X59690Y15240
X59690Y17780
X59690Y20320
X62230Y2540
X62230Y5080
X62230Y7620
X62230Y10160
X62230Y12700
X62230Y15240
X62230Y17780
X62230Y20320
X64770Y2540
X64770Y5080
X64770Y10160
X64770Y12700
X64770Y15240
X64770Y17780
X64770Y20320
X67310Y2540
X67310Y5080
X67310Y7620
X67310Y10160
X67310Y12700
X67310Y15240
X67310Y17780
X67310Y20320
X69850Y2540
X69850Y5080
X69850Y7620
X69850Y10160
X69850Y12700
X69850Y15240
X69850Y17780
X69850Y20320
X72390Y2540
X72390Y5080
X72390Y7620
X72390Y10160
X72390Y12700
X72390Y15240
X72390Y17780
X72390Y20320
X74930Y2540
X74930Y5080
X74930Y7620
X74930Y10160
X74930Y12700
X74930Y15240
X74930Y17780
X77470Y2540
X77470Y5080
X77470Y7620
X77470Y10160
X77470Y12700
X77470Y15240
X77470Y17780
X77470Y20320
X85090Y2540
X85090Y5080
X85090Y7620
X85090Y10160
X85090Y12700
X85090Y15240
X85090Y17780
X85090Y20320
X49530Y2540
X49530Y5080
X49530Y7620
X49530Y10160
X49530Y12700
X49530Y15240
X49530Y17780
X49530Y20320
X82550Y2540
X82550Y5080
X82550Y7620
X82550Y10160
X82550Y12700
X82550Y15240
X82550Y17780
X82550Y20320
T4
X27980Y71120
X32980Y71120
X72350Y80010
X67350Y80010
T5
X2540Y55840
X2540Y50840
X2540Y53340
T6
X4986Y70445
X4986Y65445
T7
X24130Y64770
X72390Y40640
X72390Y30480
X69215Y40513
X69215Y30353
X74930Y27686
X85090Y27686
X72390Y86360
X62230Y86360
X60960Y24130
X63500Y34290
X63500Y24130
X48260Y67310
X48260Y64770
X48260Y62230
X48260Y59690
X48260Y57150
X48260Y54610
X48260Y52070
X48260Y49530
X48260Y46990
X48260Y44450
X48260Y41910
X48260Y39370
X48260Y36830
X48260Y34290
X55880Y34290
X55880Y36830
X55880Y39370
X55880Y41910
X55880Y44450
X55880Y46990
X55880Y49530
X55880Y52070
X55880Y54610
X55880Y57150
X55880Y59690
X55880Y62230
X55880Y64770
X60960Y34290
X77470Y68580
X77470Y66040
X77470Y63500
X55880Y67310
X77470Y60960
X77470Y58420
X77470Y55880
X77470Y53340
X77470Y50800
X77470Y48260
X77470Y45720
X77470Y43180
X77470Y40640
X77470Y38100
X77470Y35560
X85090Y35560
X85090Y38100
X85090Y40640
X85090Y43180
X85090Y45720
X85090Y48260
X85090Y50800
X85090Y53340
X85090Y55880
X85090Y58420
X85090Y60960
X85090Y63500
X85090Y66040
X85090Y68580
X62230Y59690
X62230Y62230
X43180Y36830
X43180Y34290
X62230Y46990
X62230Y41910
X72390Y48260
X72390Y45720
X10160Y69850
X10160Y72390
X85090Y32004
X85090Y29464
X13970Y62230
X13970Y72390
X24130Y74930
T8
X19050Y39370
X8890Y14986
X36830Y19812
X39116Y17145
X44450Y44450
X15240Y48260
X20320Y17272
X20320Y41656
X17780Y19812
X17780Y46990
X33020Y46990
X43180Y3429
X7620Y66040
X21590Y40640
X39370Y40640
X39370Y48260
X38100Y30480
X38100Y50800
X48260Y29210
X19050Y24892
X43180Y8890
X66040Y39370
X13970Y45720
X10033Y44450
X35560Y44450
X35560Y58420
X7620Y50800
X6350Y49530
X31750Y49530
X31750Y60960
X44577Y4572
X52070Y36830
X53340Y24130
M30